<?xml version="1.0" encoding="UTF-8"?>
<svg width="186.64" height="46.768" data-name="Layer 1" version="1.1" viewBox="0 0 186.64 46.768" xmlns="http://www.w3.org/2000/svg" xmlns:cc="http://creativecommons.org/ns#" xmlns:dc="http://purl.org/dc/elements/1.1/" xmlns:rdf="http://www.w3.org/1999/02/22-rdf-syntax-ns#">
 <defs>
  <style>.cls-1{fill:#006f53;}.cls-2{fill:#746d64;}</style>
 </defs>
 <title>Ohio Logo Green Gray-2</title>
 <path class="cls-1" d="m42.526 7.0553c11.64 0.85519 21.436 4.8639 26.276 10.316h1.1525c-5.0132-6.0933-15.731-10.53-28.466-11.278a5.866 5.4412 0 0 1 1.0372 0.96209z" stroke-width=".55497"/>
 <path class="cls-1" d="m33.882 6.1467c-12.619 0.74829-23.222 5.1846-28.178 11.278h1.1525c4.7827-5.4519 14.521-9.4071 26.103-10.316a3.8607 3.5811 0 0 1 0.92196-0.96209z" stroke-width=".55497"/>
 <polygon class="cls-1" transform="scale(.57623 .5345)" points="69.4 45.1 69.4 42 71.5 42 71.5 45.1"/>
 <polygon class="cls-1" transform="scale(.57623 .5345)" points="63.6 45.1 63.6 42 65.7 42 65.7 45.1"/>
 <polygon class="cls-1" transform="scale(.57623 .5345)" points="58 45.1 58 42 60.1 42 60.1 45.1"/>
 <polygon class="cls-1" transform="scale(.57623 .5345)" points="52.5 45.1 52.5 42 54.6 42 54.6 45.1"/>
 <polygon class="cls-1" transform="scale(.57623 .5345)" points="75.2 45.1 75.2 42 77.3 42 77.3 45.1"/>
 <polygon class="cls-1" transform="scale(.57623 .5345)" points="81 45.1 81 42 83 42 83 45.1"/>
 <polygon class="cls-1" transform="scale(.57623 .5345)" points="86.6 45.1 86.6 42 88.7 42 88.7 45.1"/>
 <path class="cls-1" d="m37.224 15.981a0.97959 0.90864 0 1 0 0.97959-0.90864 0.97382 0.9033 0 0 0-0.97959 0.90864z" stroke-width=".55497"/>
 <polygon class="cls-1" transform="scale(.57623 .5345)" points="69.4 50.3 69.4 47.2 71.5 47.2 71.5 50.3"/>
 <polygon class="cls-1" transform="scale(.57623 .5345)" points="63.6 50.3 63.6 47.2 65.7 47.2 65.7 50.3"/>
 <polygon class="cls-1" transform="scale(.57623 .5345)" points="58 50.3 58 47.2 60.1 47.2 60.1 50.3"/>
 <polygon class="cls-1" transform="scale(.57623 .5345)" points="52.5 50.3 52.5 47.2 54.6 47.2 54.6 50.3"/>
 <polygon class="cls-1" transform="scale(.57623 .5345)" points="75.2 50.3 75.2 47.2 77.3 47.2 77.3 50.3"/>
 <polygon class="cls-1" transform="scale(.57623 .5345)" points="81 50.3 81 47.2 83 47.2 83 50.3"/>
 <polygon class="cls-1" transform="scale(.57623 .5345)" points="86.6 50.3 86.6 47.2 88.7 47.2 88.7 50.3"/>
 <polygon class="cls-1" transform="scale(.57623 .5345)" points="63.6 55.6 63.6 52.5 65.7 52.5 65.7 55.6"/>
 <polygon class="cls-1" transform="scale(.57623 .5345)" points="58 55.6 58 52.5 60.1 52.5 60.1 55.6"/>
 <polygon class="cls-1" transform="scale(.57623 .5345)" points="52.5 55.6 52.5 52.5 54.6 52.5 54.6 55.6"/>
 <polygon class="cls-1" transform="scale(.57623 .5345)" points="75.2 55.6 75.2 52.5 77.3 52.5 77.3 55.6"/>
 <polygon class="cls-1" transform="scale(.57623 .5345)" points="81 55.6 81 52.5 83 52.5 83 55.6"/>
 <polygon class="cls-1" transform="scale(.57623 .5345)" points="86.6 55.6 86.6 52.5 88.7 52.5 88.7 55.6"/>
 <path class="cls-1" d="m38.434 6.414-0.63385-6.414-0.5186 6.3605a2.691 2.4961 0 0 0-2.2473 2.2449l1.7863-0.48105h2.1897l1.3829 0.48105a2.8811 2.6725 0 0 0-1.9592-2.1914z" stroke-width=".55497"/>
 <polygon class="cls-1" transform="scale(.57623 .5345)" points="19.3 51.4 19.3 48.8 20.9 48.8 20.9 51.4"/>
 <polygon class="cls-1" transform="scale(.57623 .5345)" points="23.6 51.4 23.6 48.8 25.2 48.8 25.2 51.4"/>
 <polygon class="cls-1" transform="scale(.57623 .5345)" points="27.7 51.4 27.7 48.8 29.4 48.8 29.4 51.4"/>
 <polygon class="cls-1" transform="scale(.57623 .5345)" points="19.3 46.7 19.3 44.1 20.9 44.1 20.9 46.7"/>
 <polygon class="cls-1" transform="scale(.57623 .5345)" points="23.6 46.7 23.6 44.1 25.2 44.1 25.2 46.7"/>
 <polygon class="cls-1" transform="scale(.57623 .5345)" points="27.7 46.7 27.7 44.1 29.4 44.1 29.4 46.7"/>
 <polygon class="cls-1" transform="scale(.57623 .5345)" points="19.3 56.2 19.3 53.6 20.9 53.6 20.9 56.2"/>
 <polygon class="cls-1" transform="scale(.57623 .5345)" points="27.7 56.2 27.7 53.6 29.4 53.6 29.4 56.2"/>
 <path class="cls-1" d="m13.484 22.075" stroke-width=".55497"/>
 <path class="cls-1" d="m14.521 22.021a0.5186 0.48105 0 0 0-1.0372 0v0.58794h0.97959l0.05762-0.58794z" stroke-width=".55497"/>
 <polygon class="cls-1" transform="scale(.57623 .5345)" points="116 51.4 116 48.8 117.6 48.8 117.6 51.4"/>
 <polygon class="cls-1" transform="scale(.57623 .5345)" points="120.2 51.4 120.2 48.8 121.8 48.8 121.8 51.4"/>
 <polygon class="cls-1" transform="scale(.57623 .5345)" points="124.4 51.4 124.4 48.8 126 48.8 126 51.4"/>
 <polygon class="cls-1" transform="scale(.57623 .5345)" points="116 46.7 116 44.1 117.6 44.1 117.6 46.7"/>
 <polygon class="cls-1" transform="scale(.57623 .5345)" points="120.2 46.7 120.2 44.1 121.8 44.1 121.8 46.7"/>
 <polygon class="cls-1" transform="scale(.57623 .5345)" points="124.4 46.7 124.4 44.1 126 44.1 126 46.7"/>
 <polygon class="cls-1" transform="scale(.57623 .5345)" points="116 56.2 116 53.6 117.6 53.6 117.6 56.2"/>
 <polygon class="cls-1" transform="scale(.57623 .5345)" points="124.4 56.2 124.4 53.6 126 53.6 126 56.2"/>
 <g stroke-width=".55497">
  <path class="cls-1" d="m69.205 22.075c-0.0576 0 0 0.05345 0 0z"/>
  <path class="cls-1" d="m70.242 22.021a0.5186 0.48105 0 0 0-1.0372 0v0.58794h0.97959v-0.58794z"/>
  <path class="cls-1" d="m52.494 39.072h1.0948v-0.80174h0.63385v-0.74829h-0.63385v-2.5656h-1.2677l-1.7863 2.4587v0.85519h1.9592zm-9.8535 0.05345c1.4406 0 1.7287-1.069 1.7287-2.0845s-0.23049-2.0845-1.7287-2.0845-1.7287 1.069-1.7287 2.0845 0.28811 2.0845 1.7287 2.0845zm-19.592-0.05345h1.1525v-4.0622h-1.0372l-1.4982 0.90864 0.5186 0.7483 0.80672-0.5345v2.9397zm8.2977-2.9932a0.98535 0.91399 0 0 0 0.7491 0.85519 1.1525 1.069 0 0 0-0.86434 1.0155c0 0.85519 0.74909 1.1759 1.7287 1.1759s1.7287-0.3207 1.7287-1.2293a1.1525 1.069 0 0 0-0.86434-1.0155 1.0718 0.99416 0 0 0 0.7491-0.96209c0-0.69484-0.63385-1.069-1.4982-1.069-0.97959 0.05345-1.7287 0.37415-1.7287 1.2293zm43.39-13.79h-1.7287v-1.3362h-1.6134v-0.96209h-3.2845v0.96209h-1.6134v1.2828h-1.4982v9.5675h4.0336v-2.5121h1.4406v2.5121h4.0912v0.80174h-5.0708c-5.4742 5.9864-18.151 11.011-32.211 11.011-14.06 0-25.469-5.0243-30.943-11.011h-6.3385v-10.369h1.5558v-1.6035h1.7863v-1.3362h13.484v1.069h1.6134v1.3362h0.57623v0.5345h-1.7287v-1.3362h-1.6134v-0.96209h-3.2845v0.96209h-1.6134v1.2828h-1.4982v9.5675h4.0336v-2.5121h1.4406v2.5121h6.108v-10.743l-0.40336-0.37415 3.6302-3.3673h10.43v-3.1001h-0.34573v-0.3207l0.46098-0.4276h0.5186v-3.4208l-0.46098-0.1069-0.11524-0.3207 1.6711-0.4276v4.4363h0.92196v-4.5432h1.5558v4.5432h0.92197v-4.4363l1.1524 0.4276-0.11524 0.26725-0.46098 0.1069v3.6346h0.40336l0.34573 0.37415v0.3207h-5.0708v4.1156h4.7251v-1.0155h9.2773l3.6302 3.3673-0.40336 0.37415h-25.124v10.743h11.525v-2.5121a0.99687 0.92468 0 0 1 1.9592 0v2.5121h14.175v-9.5675h1.6134v-1.6035h1.7863v-1.3362h13.484v1.1224h1.6134v1.3362h0.57623zm-36.821-12.507a0.46098 0.4276 0 1 0 0.46098 0.4276 0.45522 0.42225 0 0 0-0.46098-0.4276zm14.636 27.74h-1.2101l1.2101-1.7104zm-9.9111 0.85519c-0.5186 0-0.57623-0.74829-0.57623-1.3897s0.0576-1.3897 0.57623-1.3897c0.51861 0 0.57623 0.74829 0.57623 1.3897s-0.0576 1.3897-0.57623 1.3897zm-9.162-0.5345a0.57623 0.5345 0 0 1-0.57623 0.5345 0.57623 0.5345 0 0 1-0.57623-0.48105 0.57695 0.53517 0 1 1 1.1525-0.05345zm-1.0948-1.7638a0.5186 0.48105 0 0 1 0.51861-0.48105 0.50708 0.47036 0 0 1 0.5186 0.4276 0.71452 0.66277 0 0 1-0.5186 0.58794 0.67419 0.62536 0 0 1-0.51861-0.5345z"/>
  <path class="cls-2" d="m144.4 39.125v2.8863c1.0372-0.05345 2.0168-0.48105 2.0168-1.6035 0-1.0155-1.0372-1.2828-2.0168-1.2828zm2.4202 5.6122c-0.40336-0.5345-0.74909-1.069-0.92196-1.3362-0.51861-0.90864-0.46098-0.85519-1.4982-1.0155v1.0155c0 1.3897-0.0576 1.8707 1.7287 1.9776v0.26725h-4.6098v-0.26725c1.3253-0.2138 1.4406-0.1069 1.4406-1.9776v-2.7259c0-1.3897-0.0576-1.55-1.4406-1.6569v-0.26725h3.3997c1.3253 0 3.1692 0 3.1692 1.6035a1.9592 1.8173 0 0 1-1.4406 1.6569l1.1525 1.9776a5.186 4.8105 0 0 0 4.2641 2.3518h0.51861a5.2437 4.8639 0 0 1-5.7623-1.6035z"/>
  <path class="cls-2" d="m94.905 39.018c1.0372 0.2138 1.5558 0.1069 1.6134 1.2293l0.0576 2.4587c0.0576 1.2828-0.23049 2.4587-2.0168 2.4587a2.5239 2.3411 0 0 1-2.0744-0.85519 4.2698 3.9606 0 0 1-0.34574-1.9242v-1.4431c0-1.3897-0.0576-1.8707 1.4406-1.9776v-0.26725h-4.3217v0.26725c1.3253 0.2138 1.4406 0.1069 1.4406 1.9776v1.6035c0 0.85519-0.11525 1.8173 0.63385 2.4587a3.9299 3.6453 0 0 0 2.5354 0.74829 3.3825 3.1375 0 0 0 2.5354-0.85519c0.63385-0.58794 0.63385-1.55 0.69147-2.3518l0.0576-1.55c0.11525-1.7104 0.11525-1.8707 1.1525-2.0845h0.46098l0.0576-0.26725h-3.9183v0.37415z"/>
  <path class="cls-2" d="m102.22 43.882c0 1.3897-0.57622 1.3362-1.3253 1.4966v0.26725h3.5726v-0.26725c-1.2677-0.26725-1.5558-0.3207-1.5558-1.6035-0.0576-1.1224-0.11525-2.1914-0.0576-3.3139 1.7863 1.8173 5.9928 6.3071 5.9928 6.3071v-5.5588c0-1.6569 0.0576-2.0845 1.0372-2.1914v-0.26725h-3.3421v0.26725c1.2677 0.16035 1.6134 0.3207 1.6711 1.55l0.0576 3.2604c-1.5558-1.7104-3.515-3.4208-4.8979-5.0777h-2.5354v0.26725c1.3829 0.2138 1.4406 0.96209 1.4406 2.0311v2.8328z"/>
  <path class="cls-2" d="m116.28 40.942c0-1.8173 0.11525-1.7638 1.4406-1.9776v-0.26725h-4.3217v0.26725c1.3253 0.2138 1.4406 0.1069 1.4406 1.9776v2.4052c0 1.8173-0.11524 1.7638-1.4406 1.9776v0.26725h4.3217v-0.26725c-1.3253-0.2138-1.4406-0.1069-1.4406-1.9776z"/>
  <path class="cls-2" d="m124.64 46.768 2.3625-5.345c0.7491-1.6569 1.0372-2.2983 2.0168-2.4052v-0.26725h-3.4574v0.26725c1.383 0.2138 1.7287 0.16035 0.57623 2.9397l-0.97959 2.1914-1.4982-3.3673c-0.69147-1.4966-0.63385-1.4966 0.63385-1.7638v-0.26725h-3.9183v0.26725c0.86434 0.26725 0.86434 0.2138 1.4406 1.3362z"/>
  <path class="cls-2" d="m135.13 42.332c0.97958 0 1.4982 0 1.6711 0.96209h0.28811a22.167 20.562 0 0 1 0.0576-2.5656h-0.28811c-0.28811 0.90864-0.7491 1.0155-1.7287 1.0155h-0.92197v-2.619h0.80672c1.2101 0 2.1897 0 2.2473 1.3362h0.34573l0.2305-1.7638h-6.5114v0.26725c1.3253 0.2138 1.4406 0.1069 1.4406 1.9776v2.4052c0 1.8173-0.11524 1.7638-1.4406 1.9776v0.26725h6.6266a7.5371 6.9912 0 0 0 0.40336-2.3518h-0.34574c-0.28811 1.1759-0.92196 1.9242-2.3625 1.9242s-1.4982-0.48105-1.4982-1.4966v-1.3362z"/>
  <path class="cls-2" d="m163.59 40.942c0-1.8173 0.11525-1.7638 1.4406-1.9776v-0.26725h-4.3217v0.26725c1.3253 0.2138 1.4406 0.1069 1.4406 1.9776v2.4052c0 1.8173-0.11524 1.7638-1.4406 1.9776v0.26725h4.3217v-0.26725c-1.3253-0.2138-1.4406-0.1069-1.4406-1.9776z"/>
  <path class="cls-2" d="m168.26 40.729c0.46098-1.4431 1.2677-1.6035 2.7659-1.6035v4.2225c0 1.8173-0.11524 1.7638-1.6711 1.9776v0.26725h4.7251v-0.26725c-1.4982-0.2138-1.6711-0.1069-1.6711-1.9776v-4.2225c1.4982 0 2.3049 0.16035 2.7659 1.6035l0.28811-0.05345-0.23049-1.9776h-7.0876l-0.23049 1.9776z"/>
  <path class="cls-2" d="m181.91 42.706 0.17287-0.37415 1.2677-2.138a2.4029 2.2288 0 0 1 1.8439-1.1759v-0.26725h-3.1692v0.26725c0.97958 0.2138 1.1524 0.3207 0.23049 2.0845l-0.57623 1.1224-0.97959-1.8707c-0.63385-1.2293-0.28811-1.1759 0.51861-1.3362v-0.26725h-3.8031v0.26725c1.2101 0.2138 1.3829 0.69484 1.8439 1.6035l1.2101 2.2983v0.48105c0 1.8173-0.11524 1.7638-1.6134 1.9776v0.26725h4.6098v-0.26725c-1.6711-0.1069-1.6134-0.58794-1.6134-1.9776v-0.69484z"/>
  <path class="cls-2" d="m154.72 45.806c1.3829 0 2.8811-0.58794 2.8811-2.0845 0-2.138-3.6302-2.0311-3.6302-3.688a1.1064 1.0262 0 0 1 1.0948-1.069c1.1525 0 1.383 0.90864 1.6134 1.7638h0.34574l0.11524-1.7638a3.5726 3.3139 0 0 0-1.8439-0.48105c-1.3253 0-2.7083 0.74829-2.7083 2.0845 0 2.0311 3.6302 1.8707 3.6302 3.5811a1.1986 1.1118 0 0 1-1.2677 1.1224c-1.2677 0-2.0744-1.1224-2.4778-2.138l-0.34573 0.05345 0.40335 1.9242a3.2614 3.0252 0 0 0 2.1897 0.69484z"/>
  <path class="cls-2" d="m174.42 12.774c-5.3013 0-7.4333 4.8105-7.4333 8.7123 0 4.4363 2.5354 10.102 8.1248 10.102 5.1284 0 7.3757-4.8105 7.3757-8.9261-0.17287-5.0777-3.3421-9.8882-8.0672-9.8882zm0.23049-1.2293c8.3553 0 11.986 5.2915 11.986 10.636 0 6.5208-5.0708 10.636-11.928 10.636-6.8571 0-11.928-4.1691-11.928-10.69-0.0576-6.414 5.0708-10.583 11.87-10.583z"/>
  <path class="cls-2" d="m99.399 12.774c-5.3013 0-7.4333 4.8105-7.4333 8.7123 0 4.4363 2.5354 10.102 8.1248 10.102 5.1284 0 7.3757-4.8105 7.3757-8.9261-0.11524-5.0777-3.3421-9.8882-8.0672-9.8882zm0.28811-1.2293c8.3553 0 11.986 5.2915 11.986 10.636 0 6.5208-5.0708 10.636-11.928 10.636-6.8571 0-11.928-4.1691-11.928-10.69-0.0576-6.414 5.0132-10.583 11.87-10.583z"/>
  <path class="cls-2" d="m154.6 16.837c0.11525-3.1001 0.11525-4.0622 4.0336-4.5432v-0.48105h-11.006v0.48105c3.9184 0.48105 3.976 1.3897 4.0336 4.5432v10.69c-0.11524 3.1535-0.11524 4.0622-4.0336 4.5432v0.48105h11.006v-0.48105c-3.9183-0.48105-3.976-1.3897-4.0336-4.5432z"/>
  <path class="cls-2" d="m122.74 16.837v3.3673h13.023v-3.3673c-0.11525-3.1001-0.11525-4.0622-4.0336-4.5432v-0.48105h11.006v0.48105c-3.9184 0.48105-3.976 1.3897-4.0336 4.5432v10.69c0.11524 3.1535 0.11524 4.0622 4.0336 4.5432v0.48105h-11.006v-0.48105c3.9183-0.48105 3.976-1.3897 4.0336-4.5432v-5.4519h-13.023v5.4519c0.11524 3.1535 0.11524 4.0622 4.0336 4.5432v0.48105h-11.006v-0.48105c3.9183-0.48105 3.976-1.3897 4.0336-4.5432v-10.69c-0.11525-3.1001-0.11525-4.0622-4.0336-4.5432v-0.48105h11.006v0.48105c-3.9184 0.5345-3.9184 1.4431-4.0336 4.5432z"/>
 </g>
 <metadata>
  <rdf:RDF>
   <cc:Work rdf:about="">
    <dc:title>Ohio Logo Green Gray-2</dc:title>
   </cc:Work>
  </rdf:RDF>
 </metadata>
</svg>
